<?xml version="1.0" standalone="no"?>
<!DOCTYPE svg PUBLIC "-//W3C//DTD SVG 1.1//EN" "http://www.w3.org/Graphics/SVG/1.1/DTD/svg11.dtd" >
<svg xmlns="http://www.w3.org/2000/svg">
<metadata>Generated by IcoMoon</metadata>
<defs>
<font id="icomoon" horiz-adv-x="1024">
<font-face units-per-em="1024" ascent="960" descent="-64" />
<missing-glyph horiz-adv-x="1024" />
<glyph unicode="&#x20;" d="" horiz-adv-x="512" />
<glyph unicode="&#xe036;" d="M426.667 896q78 0 149.167-30.5t122.5-81.833 81.833-122.5 30.5-149.167q0-67-21.833-128.333t-62.167-111.333l242.333-242q12.333-12.333 12.333-30.333 0-18.333-12.167-30.5t-30.5-12.167q-18 0-30.333 12.333l-242 242.333q-50-40.333-111.333-62.167t-128.333-21.833q-78 0-149.167 30.5t-122.5 81.833-81.833 122.5-30.5 149.167 30.5 149.167 81.833 122.5 122.5 81.833 149.167 30.5zM426.667 810.667q-60.667 0-116-23.667t-95.333-63.667-63.667-95.333-23.667-116 23.667-116 63.667-95.333 95.333-63.667 116-23.667 116 23.667 95.333 63.667 63.667 95.333 23.667 116-23.667 116-63.667 95.333-95.333 63.667-116 23.667z" />
<glyph unicode="&#xe117;" d="M810.667 768q18.333 0 30.5-12.167t12.167-30.5q0-18-12.333-30.333l-268.667-268.333 268.667-268.333q12.333-12.333 12.333-30.333 0-18.333-12.167-30.5t-30.5-12.167q-18 0-30.333 12.333l-268.333 268.667-268.333-268.667q-12.333-12.333-30.333-12.333-18.333 0-30.5 12.167t-12.167 30.5q0 18 12.333 30.333l268.667 268.333-268.667 268.333q-12.333 12.333-12.333 30.333 0 18.333 12.167 30.5t30.5 12.167q18 0 30.333-12.333l268.333-268.667 268.333 268.667q12.333 12.333 30.333 12.333z" />
<glyph unicode="&#xe600;" d="M512 907.776c-253.952 0-459.776-205.824-459.776-459.776s205.824-459.776 459.776-459.776c253.952 0 459.776 205.824 459.776 459.776s-205.824 459.776-459.776 459.776zM512 131.584c-38.912 0-70.656 31.744-70.656 70.656s31.744 70.656 70.656 70.656c38.912 0 70.656-31.744 70.656-70.656s-31.744-70.656-70.656-70.656zM582.656 397.824c0-38.912-31.744-70.656-70.656-70.656s-70.656 31.744-70.656 70.656v295.936c0 38.912 31.744 70.656 70.656 70.656s70.656-31.744 70.656-70.656v-295.936z" />
<glyph unicode="&#xe601;" d="M952.32 166.4c-92.16 45.056-155.648 140.288-155.648 250.88v128c0 133.12-93.184 244.736-217.088 273.408 3.072 7.168 4.096 15.36 4.096 22.528 0 37.888-29.696 67.584-66.56 67.584s-66.56-29.696-66.56-66.56c0-8.192 1.024-15.36 4.096-22.528-123.904-28.672-217.088-140.288-217.088-273.408v-129.024c0-110.592-63.488-205.824-155.648-250.88v-63.488h319.488c0-64.512 52.224-105.472 115.712-105.472s115.712 40.96 115.712 104.448h319.488v64.512z" />
<glyph unicode="&#xe602;" d="M512 908.8c-253.952 0-460.8-206.848-460.8-460.8s206.848-460.8 460.8-460.8c253.952 0 460.8 206.848 460.8 460.8s-206.848 460.8-460.8 460.8zM512 31.232c-229.376 0-416.768 187.392-416.768 416.768s187.392 416.768 416.768 416.768c229.376 0 416.768-186.368 416.768-416.768s-187.392-416.768-416.768-416.768zM495.616 681.472h-59.392v-325.632h311.296v59.392h-251.904v266.24z" />
<glyph unicode="&#xe603;" d="M61.44 693.76l450.56-501.76 450.56 501.76z" />
<glyph unicode="&#xe604;" d="M266.24 448l501.76-450.56v901.12z" />
<glyph unicode="&#xe605;" d="M860.16 681.472v34.816l-193.536 192.512h-502.784v-921.6h696.32v694.272zM782.336 64h-540.672v768h348.16v-192.512h193.536v-575.488zM318.464 448h387.072v76.8h-387.072v-76.8zM512 678.4h-193.536v-76.8h193.536v76.8zM318.464 140.8h387.072v76.8h-387.072v-76.8zM318.464 294.4h387.072v76.8h-387.072v-76.8z" />
<glyph unicode="&#xe606;" d="M51.2 908.8v-691.2h230.4v-230.4l230.4 230.4h460.8v691.2z" />
<glyph unicode="&#xe607;" d="M51.2 857.6v-590.848h507.904l162.816-238.592 48.128 238.592h192.512v590.848h-911.36zM909.312 318.976h-183.296l-31.744-155.648-106.496 155.648h-483.328v486.4h803.84v-486.4z" />
<glyph unicode="&#xe608;" d="M372.736 695.808c-5.12-2.048 61.44-247.808 77.824-277.504s53.248-41.984 83.968-25.6c29.696 16.384 41.984 53.248 25.6 83.968-16.384 29.696-181.248 222.208-187.392 219.136zM772.096 485.888h-49.152c-9.216 0-17.408-8.192-17.408-17.408s8.192-17.408 17.408-17.408h49.152c9.216 0 17.408 8.192 17.408 17.408s-8.192 17.408-17.408 17.408zM512 908.8c-253.952 0-460.8-206.848-460.8-460.8 0-254.976 205.824-460.8 460.8-460.8s460.8 205.824 460.8 460.8c0 253.952-205.824 460.8-460.8 460.8zM654.336 380.416c-16.384-47.104-73.728-80.896-142.336-80.896s-125.952 34.816-142.336 80.896h-194.56c-4.096 21.504-7.168 45.056-7.168 67.584 0 189.44 153.6 344.064 344.064 344.064s344.064-153.6 344.064-344.064c0-23.552-2.048-46.080-7.168-67.584h-194.56zM738.304 598.528c-5.12 8.192-15.36 11.264-23.552 6.144l-43.008-23.552c-8.192-5.12-11.264-15.36-6.144-23.552 3.072-5.12 9.216-8.192 15.36-8.192 3.072 0 6.144 1.024 8.192 2.048l41.984 24.576c9.216 4.096 11.264 14.336 7.168 22.528zM512 633.344c9.216 0 17.408 8.192 17.408 17.408v49.152c0 9.216-8.192 17.408-17.408 17.408s-17.408-8.192-17.408-17.408v-49.152c0-9.216 8.192-17.408 17.408-17.408zM642.048 683.52c-8.192 5.12-18.432 2.048-23.552-6.144l-24.576-43.008c-5.12-8.192-2.048-18.432 6.144-23.552 3.072-2.048 6.144-2.048 8.192-2.048 6.144 0 12.288 3.072 15.36 8.192l24.576 41.984c5.12 9.216 2.048 19.456-6.144 24.576zM299.008 482.816h-49.152c-9.216 0-17.408-8.192-17.408-17.408s8.192-17.408 17.408-17.408h49.152c9.216 0 17.408 8.192 17.408 17.408 0 10.24-8.192 17.408-17.408 17.408zM349.184 572.928l-41.984 24.576c-8.192 5.12-18.432 2.048-23.552-6.144s-2.048-18.432 6.144-23.552l41.984-24.576c3.072-2.048 6.144-2.048 8.192-2.048 6.144 0 12.288 3.072 15.36 8.192 5.12 8.192 2.048 18.432-6.144 23.552z" />
<glyph unicode="&#xe609;" d="M589.824 423.424h-339.968v-24.576h339.968v24.576zM347.136 908.8v-97.28h-97.28v-97.28h-96.256v-727.040h533.504v97.28h97.28v97.28h96.256v727.040h-533.504zM663.552 11.776h-486.4v678.912h485.376v-678.912zM759.808 109.056h-72.704v605.184h-412.672v73.728h485.376v-678.912zM857.088 205.312h-72.704v606.208h-412.672v72.704h485.376v-678.912zM589.824 617.984h-339.968v-24.576h339.968v24.576zM589.824 520.704h-339.968v-24.576h339.968v24.576zM589.824 132.608h-339.968v-24.576h339.968v24.576zM589.824 327.168h-339.968v-24.576h339.968v24.576zM589.824 229.888h-339.968v-24.576h339.968v24.576z" />
<glyph unicode="&#xe60a;" d="M849.92 442.88c0-183.8-149-332.8-332.8-332.8s-332.8 149-332.8 332.8c0 183.8 149 332.8 332.8 332.8s332.8-149 332.8-332.8z" />
<glyph unicode="&#xe60b;" d="M106.496 725.504l379.904-313.344 434.176 313.344c26.624 22.528 54.272 40.96 0 40.96h-814.080c-54.272-1.024-27.648-19.456 0-40.96zM486.4 330.24l-434.176 354.304v-462.848c0-27.648 27.648-54.272 49.152-54.272h823.296c21.504 0 49.152 27.648 49.152 54.272v462.848l-487.424-354.304z" />
<glyph unicode="&#xe60c;" d="M517.12 878.080c-240.64 0-435.2-194.56-435.2-435.2s194.56-435.2 435.2-435.2 435.2 194.56 435.2 435.2-194.56 435.2-435.2 435.2zM798.72 212.48h-563.2v346.112l281.6-145.408 281.6 145.408v-346.112zM798.72 611.84l-281.6-148.48-281.6 148.48v61.44h563.2v-61.44z" />
<glyph unicode="&#xe60d;" d="M262.144 468.48v-256l105.472 102.4v153.6l210.944 204.8h-527.36l210.944-204.8zM775.168 539.136l98.304-128 99.328 128h-197.632z" />
<glyph unicode="&#xe60e;" d="M862.208 866.816c-7.168 6.144-19.456 13.312-36.864 21.504-83.968 35.84-198.656 26.624-339.968-57.344-115.712-68.608-196.608-61.44-252.928-10.24-4.096 3.072-7.168 7.168-10.24 10.24h-48.128v-843.776h48.128v780.288c70.656-49.152 166.912-49.152 287.744 22.528 128 75.776 226.304 83.968 295.936 54.272 13.312-5.12 19.456-13.312 19.456-13.312v-329.728c-83.968 35.84-198.656 26.624-339.968-57.344-83.968-50.176-149.504-59.392-200.704-41.984v-50.176c61.44-16.384 136.192-2.048 225.28 51.2 128 75.776 226.304 83.968 295.936 54.272 13.312-5.12 21.504-11.264 24.576-13.312l39.936-33.792v450.56l-8.192 6.144z" />
<glyph unicode="&#xe60f;" d="M584.704 758.272c-109.568 2.048-218.112 23.552-279.552 119.808 0 16.384-12.288 29.696-27.648 29.696s-81.92-13.312-81.92-29.696v-768c-52.224-9.216-89.088-31.744-89.088-59.392 0-34.816 64.512-63.488 143.36-63.488s143.36 28.672 143.36 63.488c0 26.624-35.84 49.152-87.040 58.368v286.72c111.616-60.416 210.944-28.672 279.552 62.464 76.8 102.4 164.864 134.144 279.552 180.224-1.024 0-113.664 117.76-280.576 119.808z" />
<glyph unicode="&#xe610;" d="M51.2 765.44v-634.88h921.6v634.88h-921.6zM95.232 720.384h821.248v-436.224l-120.832 140.288-175.104-135.168-248.832 195.584-276.48-290.816v526.336zM917.504 175.616h-805.888l262.144 277.504 245.76-193.536 173.056 133.12 124.928-142.336v-74.752zM707.584 501.248c54.272 0 99.328 45.056 99.328 99.328 0 55.296-45.056 99.328-99.328 99.328s-99.328-45.056-99.328-99.328c0-55.296 44.032-99.328 99.328-99.328zM707.584 675.328c40.96 0 74.752-33.792 74.752-75.776s-33.792-75.776-74.752-75.776c-40.96 0-74.752 33.792-74.752 75.776-1.024 41.984 32.768 75.776 74.752 75.776z" />
<glyph unicode="&#xe611;" d="M450.56 459.264l235.52 234.496c9.216 9.216 14.336 20.48 14.336 32.768 0 13.312-5.12 23.552-14.336 32.768s-20.48 14.336-32.768 14.336c-12.288 0-23.552-5.12-32.768-14.336l-303.104-301.056 302.080-301.056c9.216-9.216 20.48-14.336 32.768-14.336 13.312 0 23.552 5.12 32.768 14.336s14.336 20.48 14.336 32.768-5.12 23.552-14.336 32.768l-234.496 236.544z" />
<glyph unicode="&#xe612;" d="M384 146.944h578.56v69.632h-520.192l-58.368-69.632zM442.368 445.952l-46.080 44.032-297.984 295.936-47.104-47.104 245.76-243.712 52.224-52.224-297.984-295.936 48.128-47.104 296.96 295.936 46.080 50.176zM617.472 495.104h345.088v69.632h-403.456l58.368-69.632zM413.696 738.816l58.368-69.632h490.496v69.632h-548.864zM530.432 321.024h432.128v69.632h-373.76l-58.368-69.632z" />
<glyph unicode="&#xe613;" d="M235.52 806.4v-92.16h737.28v92.16h-737.28zM235.52 437.76h737.28v92.16h-737.28v-92.16zM235.52 161.28h737.28v92.16h-737.28v-92.16zM51.2 714.24h92.16v92.16h-92.16v-92.16zM51.2 437.76h92.16v92.16h-92.16v-92.16zM51.2 161.28h92.16v92.16h-92.16v-92.16z" />
<glyph unicode="&#xe614;" d="M670.72 339.456c0 0-27.648-66.56-65.536-118.784-19.456 41.984-44.032 84.992-63.488 105.472 49.152 6.144 78.848 33.792 88.064 46.080-4.096 13.312-4.096 31.744 5.12 59.392v0c61.44 60.416 107.52 157.696 107.52 252.928 0 147.456-101.376 224.256-220.16 224.256s-220.16-76.8-220.16-224.256c0-96.256 46.080-193.536 107.52-253.952 10.24-24.576 8.192-43.008 2.048-56.32 8.192-10.24 38.912-40.96 90.112-48.128-19.456-21.504-43.008-64.512-63.488-106.496-38.912 53.248-66.56 120.832-66.56 120.832v0c-120.832-43.008-259.072-118.784-259.072-194.56 0-20.48 0-8.192 0-28.672 0-105.472 212.992-130.048 410.624-130.048s408.576 24.576 408.576 130.048c0 20.48 0 8.192 0 28.672 0 76.8-135.168 151.552-261.12 193.536z" />
<glyph unicode="&#xe615;" d="M862.208 854.528h-700.416c-61.44 0-110.592-49.152-110.592-109.568v-422.912c0-60.416 49.152-109.568 110.592-109.568h94.208v-184.32c0-22.528 18.432-40.96 41.984-40.96 11.264 0 22.528 5.12 29.696 12.288v0l214.016 212.992h320.512c60.416 0 110.592 49.152 110.592 109.568v422.912c0 60.416-49.152 109.568-110.592 109.568zM303.104 480.768c-30.72 0-55.296 24.576-55.296 54.272 0 30.72 24.576 54.272 55.296 54.272s55.296-24.576 55.296-54.272c0-29.696-24.576-54.272-55.296-54.272zM518.144 480.768c-30.72 0-55.296 24.576-55.296 54.272 0 30.72 24.576 54.272 55.296 54.272s55.296-24.576 55.296-54.272c0-29.696-24.576-54.272-55.296-54.272zM736.256 480.768c-30.72 0-55.296 24.576-55.296 54.272 0 30.72 24.576 54.272 55.296 54.272s55.296-24.576 55.296-54.272c0-29.696-24.576-54.272-55.296-54.272z" />
<glyph unicode="&#xe616;" d="M163.84 908.8v-691.2h348.16l232.448-230.4v230.4h115.712v691.2h-696.32zM782.336 294.4h-115.712v-114.688l-76.8 114.688h-348.16v537.6h541.696v-537.6zM666.624 486.912h-309.248v-76.8h309.248v76.8zM666.624 601.6h-309.248v-76.8h309.248v76.8zM666.624 716.288h-309.248v-76.8h309.248v76.8z" />
<glyph unicode="&#xe617;" d="M112.64 908.8v-716.8h202.752l201.728-204.8 201.728 204.8h202.752v716.8h-808.96zM770.048 345.6h-505.856v102.4h505.856v-102.4zM770.048 499.2h-505.856v102.4h505.856v-102.4zM770.048 652.8h-505.856v102.4h505.856v-102.4z" />
<glyph unicode="&#xe618;" d="M972.8 494.080h-414.72v414.72h-92.16v-414.72h-414.72v-92.16h414.72v-414.72h92.16v414.72h414.72z" />
<glyph unicode="&#xe619;" d="M542.72-12.8h184.32v860.16h-184.32v-860.16zM296.96-12.8h184.32v430.080h-184.32v-430.080zM51.2-12.8h184.32v184.32h-184.32v-184.32zM788.48 478.72v-491.52h184.32v491.52h-184.32z" />
<glyph unicode="&#xe61a;" d="M397.312 755.2c-9.216 9.216-20.48 14.336-32.768 14.336-13.312 0-23.552-5.12-32.768-14.336s-14.336-20.48-14.336-32.768c0-13.312 5.12-23.552 14.336-32.768l235.52-235.52-235.52-234.496c-9.216-9.216-14.336-20.48-14.336-32.768s5.12-23.552 14.336-32.768c9.216-9.216 20.48-14.336 32.768-14.336s23.552 5.12 32.768 14.336l301.056 301.056-301.056 300.032z" />
<glyph unicode="&#xe61b;" d="M967.68 109.056l-218.112 220.16c35.84 58.368 56.32 125.952 56.32 199.68 0 209.92-168.96 379.904-376.832 379.904-208.896 0-377.856-169.984-377.856-379.904s168.96-380.928 377.856-380.928c76.8 0 147.456 22.528 206.848 62.464l216.064-218.112c11.264-11.264 38.912-1.024 62.464 21.504l32.768 32.768c22.528 23.552 32.768 51.2 20.48 62.464zM429.056 273.92c-139.264 0-251.904 113.664-251.904 253.952s112.64 253.952 251.904 253.952c139.264 0 251.904-113.664 251.904-253.952 0-139.264-113.664-253.952-251.904-253.952z" />
<glyph unicode="&#xe61c;" d="M972.8 577.024h-352.256l-108.544 331.776-108.544-331.776h-352.256l284.672-204.8-108.544-330.752 284.672 204.8 284.672-204.8-108.544 330.752z" />
<glyph unicode="&#xe61d;" d="M506.88 898.56c-251.904 0-455.68-199.68-455.68-445.44s203.776-445.44 455.68-445.44c251.904 0 455.68 199.68 455.68 445.44s-203.776 445.44-455.68 445.44zM436.224 247.296l-209.92 204.8 80.896 78.848 129.024-125.952 273.408 267.264 80.896-78.848-354.304-346.112z" />
<glyph unicode="&#xe61e;" d="M548.864 662.016h-76.8v-230.4l162.816-162.816 54.272 54.272-140.288 140.288v198.656zM512 908.8c-253.952 0-460.8-205.824-460.8-460.8s205.824-460.8 460.8-460.8c253.952 0 460.8 206.848 460.8 460.8 0 254.976-205.824 460.8-460.8 460.8zM512 140.8c-168.96 0-307.2 138.24-307.2 307.2s138.24 307.2 307.2 307.2c168.96 0 307.2-138.24 307.2-307.2s-138.24-307.2-307.2-307.2z" />
<glyph unicode="&#xe61f;" d="M950.272 133.632c-14.336 46.080-62.464 52.224-102.4 71.68-44.032 20.48-92.16 44.032-136.192 63.488-12.288 4.096-24.576 7.168-37.888 11.264-15.36 11.264-28.672 49.152-36.864 67.584-8.192 1.024-13.312 3.072-23.552 4.096 0 0 0 9.216 0 9.216h-16.384c20.48 10.24 52.224 31.744 62.464 51.2l18.432 102.4v-1.024l3.072 17.408c0 0 0 0 0 0 17.408-3.072 35.84 25.6 41.984 63.488s-3.072 70.656-19.456 72.704c-4.096 1.024-8.192-1.024-12.288-3.072 3.072 33.792 3.072 61.44 1.024 86.016 0 4.096 1.024 9.216 1.024 14.336 0 19.456 22.528 81.92 2.048 97.28-4.096 3.072-13.312 0-20.48 0-38.912-3.072-80.896 43.008-139.264 48.128-72.704 7.168-144.384-32.768-150.528-76.8-4.096 0-9.216-1.024-15.36-2.048-17.408-5.12-34.816-31.744-37.888-78.848-3.072-51.2 0-75.776 5.12-88.064 0 0-1.024 0-1.024 0-4.096 3.072-9.216 4.096-13.312 4.096-17.408-3.072-25.6-35.84-19.456-72.704 6.144-37.888 24.576-65.536 41.984-63.488 0 0 1.024 0 1.024 0l10.24-64.512 10.24-54.272c10.24-19.456 40.96-39.936 61.44-50.176h-15.36l-14.336-8.192c-8.192-18.432-22.528-58.368-37.888-69.632-12.288-4.096-24.576-8.192-37.888-12.288-44.032-19.456-92.16-44.032-136.192-64.512-39.936-18.432-88.064-24.576-102.4-71.68 0-33.792-3.072-109.568-2.048-149.504h870.4c1.024 39.936-2.048 114.688-2.048 146.432z" />
<glyph unicode="&#xe620;" d="M512 908.8c-254.976 0-460.8-205.824-460.8-460.8s205.824-460.8 460.8-460.8 460.8 205.824 460.8 460.8-205.824 460.8-460.8 460.8zM712.704 300.544l-53.248-53.248-142.336 142.336-142.336-142.336-53.248 53.248 142.336 142.336-142.336 142.336 53.248 53.248 142.336-142.336 142.336 142.336 53.248-53.248-142.336-142.336 142.336-142.336z" />
<glyph unicode="&#xe621;" d="M249.856 73.216c5.12-47.104 49.152-84.992 97.28-84.992h340.992c48.128 0 91.136 38.912 97.28 84.992l70.656 605.184h-677.888l71.68-605.184zM674.816 599.552c1.024 16.384 15.36 27.648 31.744 26.624s28.672-15.36 26.624-31.744l-41.984-486.4c-1.024-16.384-15.36-27.648-31.744-26.624s-28.672 15.36-26.624 31.744l41.984 486.4zM487.424 597.504c0 16.384 13.312 28.672 29.696 28.672s29.696-13.312 29.696-28.672v-486.4c0-16.384-13.312-28.672-29.696-28.672s-29.696 13.312-29.696 28.672v486.4zM327.68 626.176c16.384 1.024 30.72-10.24 31.744-26.624l41.984-486.4c1.024-16.384-10.24-29.696-26.624-31.744-16.384-1.024-30.72 10.24-31.744 26.624l-41.984 486.4c-2.048 16.384 10.24 30.72 26.624 31.744zM627.712 852.48v0c1.024 3.072 1.024 6.144 1.024 10.24v1.024c0 24.576-20.48 45.056-45.056 45.056h-101.376c-24.576 0-45.056-20.48-45.056-45.056v-2.048c0-3.072 1.024-7.168 1.024-10.24h189.44zM819.2 811.52h-604.16c-40.96-1.024-71.68-25.6-71.68-63.488v-26.624h747.52v26.624c0 38.912-29.696 63.488-71.68 63.488z" />
<glyph unicode="&#xe622;" d="M784.384 698.88h-544.768v-83.968h544.768v83.968zM889.856 908.8h-755.712c-33.792 0-62.464-27.648-62.464-62.464v-565.248c0-34.816 28.672-62.464 62.464-62.464h233.472l148.48-231.424 143.36 230.4h230.4c34.816 0 62.464 27.648 62.464 62.464v566.272c0 34.816-28.672 62.464-62.464 62.464zM868.352 301.568h-273.408l-82.944-146.432-93.184 146.432h-263.168v523.264h712.704v-523.264zM784.384 531.968h-544.768v-83.968h544.768v83.968z" />
<glyph unicode="&#xe623;" d="M512 451.243l-460.8 149.504v-50.176l459.776-149.504 461.824 149.504v50.176l-460.8-149.504zM51.2 451.243v-50.176l459.776-148.48 461.824 149.504v50.176l-460.8-149.504-460.8 148.48z" />
<glyph unicode="&#xe624;" d="M51.2 302.763v-50.176l460.8 149.504 460.8-149.504v50.176l-461.824 148.48-459.776-148.48zM510.976 600.747l-459.776-149.504v-50.176l460.8 149.504 460.8-149.504v50.176l-461.824 149.504z" />
<glyph unicode="&#xe625;" d="M945.152 458.411c-11.264 11.264-25.6 17.408-43.008 17.408h-623.616l236.544 236.544c11.264 12.288 17.408 26.624 17.408 43.008s-6.144 29.696-17.408 41.984-25.6 17.408-40.96 17.408c-16.384 0-29.696-6.144-41.984-17.408l-379.904-380.928 378.88-379.904c11.264-11.264 25.6-17.408 41.984-17.408s29.696 6.144 41.984 17.408 17.408 25.6 17.408 41.984-6.144 29.696-17.408 41.984l-236.544 236.544h623.616c16.384 0 30.72 6.144 43.008 17.408 11.264 11.264 17.408 25.6 17.408 41.984s-6.144 30.72-17.408 41.984z" />
<glyph unicode="&#xe626;" d="M819.2 565.931c0 44.032-8.192 84.992-24.576 124.928-16.384 38.912-37.888 72.704-65.536 102.4-27.648 28.672-60.416 52.224-97.28 69.632-36.864 15.36-76.8 24.576-118.784 24.576h-2.048c-41.984 0-81.92-8.192-119.808-25.6s-69.632-39.936-97.28-69.632c-27.648-28.672-49.152-63.488-65.536-102.4s-24.576-80.896-24.576-124.928v-1.024c0-1.024 0-2.048 0-4.096 0-1.024 0-2.048 0-4.096v-4.096c1.024-9.216 1.024-18.432 3.072-27.648 1.024-9.216 3.072-18.432 4.096-27.648 2.048-12.288 8.192-29.696 18.432-52.224s22.528-48.128 36.864-75.776c14.336-27.648 29.696-56.32 46.080-86.016s32.768-56.32 48.128-81.92c15.36-23.552 146.432-234.496 146.432-234.496l157.696 237.568c15.36 24.576 30.72 52.224 47.104 81.92s31.744 57.344 46.080 84.992c14.336 27.648 26.624 52.224 35.84 74.752s15.36 39.936 18.432 52.224c2.048 9.216 3.072 18.432 4.096 27.648s2.048 18.432 3.072 27.648v4.096c0 4.096 0 7.168 0 9.216v0c0-1.024 0 0 0 0zM625.664 518.827c-6.144-16.384-15.36-29.696-26.624-41.984s-24.576-21.504-39.936-27.648c-15.36-7.168-31.744-10.24-48.128-10.24-17.408 0-32.768 3.072-48.128 10.24s-28.672 16.384-39.936 27.648c-11.264 12.288-19.456 25.6-26.624 41.984-6.144 15.36-9.216 32.768-9.216 50.176s3.072 34.816 9.216 50.176c6.144 15.36 15.36 29.696 26.624 40.96s24.576 20.48 39.936 27.648c15.36 7.168 31.744 10.24 48.128 10.24 17.408 0 32.768-3.072 48.128-10.24s28.672-16.384 39.936-27.648c11.264-11.264 19.456-25.6 26.624-40.96 6.144-16.384 9.216-32.768 9.216-50.176s-3.072-33.792-9.216-50.176z" />
<glyph unicode="&#xe627;" d="M877.568 703.147c-47.104 0-84.992-37.888-84.992-84.992 0-15.36 4.096-30.72 12.288-43.008l-136.192-135.168c-12.288 7.168-25.6 10.24-40.96 10.24-33.792 0-63.488-20.48-76.8-49.152l-133.12 25.6c-8.192 37.888-41.984 65.536-82.944 65.536-47.104 0-84.992-37.888-84.992-84.992 0-14.336 3.072-27.648 9.216-38.912l-77.824-77.824c-11.264 5.12-22.528 8.192-35.84 8.192-47.104 0-84.992-37.888-84.992-84.992s37.888-84.992 84.992-84.992c47.104 0 84.992 37.888 84.992 84.992 0 13.312-3.072 25.6-8.192 35.84l78.848 78.848c10.24-4.096 21.504-7.168 32.768-7.168 32.768 0 61.44 18.432 75.776 46.080l135.168-26.624c10.24-35.84 43.008-62.464 81.92-62.464 47.104 0 84.992 37.888 84.992 84.992 0 11.264-2.048 21.504-6.144 30.72l142.336 141.312c9.216-3.072 18.432-5.12 28.672-5.12 47.104 0 84.992 37.888 84.992 84.992 1.024 50.176-36.864 88.064-83.968 88.064zM146.432 187.051c-15.36 0-27.648 12.288-27.648 27.648s12.288 27.648 27.648 27.648c15.36 0 27.648-12.288 27.648-27.648s-12.288-27.648-27.648-27.648zM334.848 380.587c-15.36 0-27.648 12.288-27.648 27.648s12.288 27.648 27.648 27.648c15.36 0 27.648-12.288 27.648-27.648s-12.288-27.648-27.648-27.648zM627.712 338.603c-15.36 0-27.648 12.288-27.648 27.648s12.288 27.648 27.648 27.648c15.36 0 27.648-12.288 27.648-27.648s-12.288-27.648-27.648-27.648zM877.568 591.531c-15.36 0-27.648 12.288-27.648 27.648s12.288 27.648 27.648 27.648c15.36 0 27.648-12.288 27.648-27.648s-12.288-27.648-27.648-27.648z" />
<glyph unicode="&#xe628;" d="M358.389 51.064l-341.402 341.39 68.426 68.426 272.976-272.987 580.198 580.176 68.426-68.426z" />
<glyph unicode="&#xe629;" d="M189.44-45.226c-13.653 0-25.6 11.947-25.6 25.6v814.080c0 10.24 6.827 20.48 15.36 25.6 10.24 5.12 20.48 3.413 29.013-3.413 30.72-25.6 73.387-52.907 98.987-52.907 49.493 0 131.413 39.253 204.8 73.387s143.36 66.56 191.147 66.56c98.987 0 150.187-66.56 151.893-69.973l5.12-6.827v-402.773c0-11.947-6.827-22.187-17.067-25.6s-22.187-1.707-30.72 6.827c-13.653 13.653-76.8 68.267-119.467 68.267-88.747 0-136.533-30.72-187.733-63.147-52.907-34.133-107.52-68.267-199.68-68.267-13.653 0-25.6 11.947-25.6 25.6s11.947 25.6 25.6 25.6c78.507 0 124.587 29.013 172.373 59.733 52.907 34.133 112.64 71.68 215.040 71.68 39.253 0 83.627-25.6 116.053-49.493v332.8c-11.947 13.653-49.493 42.667-107.52 42.667-35.84 0-104.107-32.427-168.96-63.147-81.92-37.547-165.547-76.8-226.987-76.8-30.72 0-64.853 17.067-92.16 35.84v-766.293c1.707-13.653-10.24-25.6-23.893-25.6z" />
<glyph unicode="&#xe62a;" d="M921.6 608.427l-409.6-486.4-409.6 486.4z" />
<glyph unicode="&#xe62b;" d="M102.4-82.773v346.453c0 107.52 0 218.453 153.6 218.453h54.613l119.467-242.347-39.253 192.853 68.267 68.267c-93.867 23.893-165.547 109.227-165.547 211.627 0 119.467 97.28 218.453 218.453 218.453s218.453-97.28 218.453-218.453c0-100.693-69.973-186.027-163.84-211.627l69.973-69.973-39.253-192.853 119.467 242.347h52.907c153.6 0 153.6-110.933 153.6-218.453v-344.747h-820.907zM518.827-31.573h353.28v295.253c0 116.053-3.413 167.253-102.4 167.253h-20.48l-230.4-462.507zM153.6-31.573h354.987l-230.4 462.507h-22.187c-98.987 0-102.4-51.2-102.4-167.253v-295.253zM447.147 415.574l66.56-334.507 66.56 334.507-66.56 66.56-66.56-66.56zM513.707 879.787c-92.16 0-167.253-75.093-167.253-167.253s75.093-167.253 167.253-167.253 167.253 75.093 167.253 167.253-76.8 167.253-167.253 167.253z" />
<glyph unicode="&#xe62c;" d="M965.973 26.454h-943.787l472.747 817.493 471.040-817.493zM110.933 77.654h766.293l-382.293 663.893-384-663.893zM494.933 280.747c-13.653 0-25.6 11.947-25.6 25.6v189.44c0 13.653 11.947 25.6 25.6 25.6s25.6-11.947 25.6-25.6v-189.44c0-15.36-11.947-25.6-25.6-25.6zM527.36 215.894c0-17.909-14.518-32.427-32.427-32.427s-32.427 14.518-32.427 32.427c0 17.909 14.518 32.427 32.427 32.427s32.427-14.518 32.427-32.427z" />
<glyph unicode="&#xe62d;" d="M785.067 232.96c-6.827 0-13.653 1.707-18.773 6.827-10.24 10.24-10.24 25.6 0 35.84l138.24 138.24-136.533 138.24c-10.24 10.24-10.24 25.6 0 35.84s25.6 10.24 35.84 0l174.080-174.080-174.080-174.080c-5.12-5.12-11.947-6.827-18.773-6.827zM892.587 388.267h-826.027c-13.653 0-25.6 11.947-25.6 25.6s11.947 25.6 25.6 25.6h826.027c13.653 0 25.6-11.947 25.6-25.6s-11.947-25.6-25.6-25.6z" />
<glyph unicode="&#xe62e;" d="M290.133 11.094l-232.107 232.107c-10.24 10.24-10.24 25.6 0 35.84s25.6 10.24 35.84 0l196.267-196.267 650.24 650.24c10.24 10.24 25.6 10.24 35.84 0s10.24-25.6 0-35.84l-686.080-686.080z" />
<glyph unicode="&#xe62f;" d="M1013.76 265.387h-288.427c-13.653 0-25.6 11.947-25.6 25.6s11.947 25.6 25.6 25.6v0h237.227v237.227c0 13.653 11.947 25.6 25.6 25.6s25.6-11.947 25.6-25.6v-288.427zM34.133 292.694c-3.413 0-5.12 0-8.533 1.707-13.653 5.12-20.48 18.773-15.36 32.427 3.413 10.24 93.867 264.533 489.813 264.533 317.44 0 472.747-240.64 479.573-252.587s3.413-27.307-8.533-35.84c-11.947-6.827-27.307-3.413-35.84 8.533-1.707 1.707-146.773 226.987-436.907 226.987-356.693 1.707-436.907-220.16-440.32-228.693-3.413-10.24-13.653-17.067-23.893-17.067z" />
<glyph unicode="&#xe630;" d="M822.613 490.667c-13.653 0-25.6 11.947-25.6 25.6v244.053h-245.76c-13.653 0-25.6 11.947-25.6 25.6s11.947 25.6 25.6 25.6h296.96v-296.96c0-13.653-11.947-23.893-25.6-23.893zM145.067 82.774c-6.827 0-13.653 1.707-18.773 6.827-10.24 10.24-10.24 25.6 0 35.84l677.547 679.253c10.24 10.24 25.6 10.24 35.84 0s10.24-25.6 0-35.84l-677.547-677.547c-5.12-5.12-10.24-8.533-17.067-8.533z" />
<glyph unicode="&#xe631;" d="M121.173 758.614h93.867v-93.867h-93.867v93.867zM308.907 758.614h563.2v-93.867h-563.2v93.867zM121.173 441.174h93.867v-93.867h-93.867v93.867zM308.907 441.174h563.2v-93.867h-563.2v93.867zM121.173 103.254h93.867v-93.867h-93.867v93.867zM308.907 103.254h563.2v-93.867h-563.2v93.867z" />
<glyph unicode="&#xe632;" d="M426.667 492.374h-331.093v332.8h331.093v-332.8zM155.307 552.107h211.627v213.333h-211.627v-213.333zM837.973 492.374h-332.8v332.8h331.093v-332.8zM564.907 552.107h211.627v213.333h-211.627v-213.333zM837.973 84.48h-332.8v332.8h331.093v-332.8zM564.907 144.214h211.627v213.333h-211.627v-213.333zM426.667 84.48h-331.093v332.8h331.093v-332.8zM155.307 144.214h211.627v213.333h-211.627v-213.333z" />
<glyph unicode="&#xe633;" d="M750.933-12.8l-220.16 220.16h-498.347v602.453h921.6v-590.507h-203.093v-232.107zM78.507 253.44h471.040l155.307-155.307v167.253h203.093v498.347h-829.44v-510.293z" />
<glyph unicode="&#xe634;" d="M170.667 333.654c-51.2 0-93.867 42.667-93.867 93.867s42.667 93.867 93.867 93.867 93.867-42.667 93.867-93.867-42.667-93.867-93.867-93.867zM170.667 470.187c-23.893 0-42.667-18.773-42.667-42.667s18.773-42.667 42.667-42.667 42.667 18.773 42.667 42.667-20.48 42.667-42.667 42.667zM512 333.654c-51.2 0-93.867 42.667-93.867 93.867s42.667 93.867 93.867 93.867 93.867-42.667 93.867-93.867-42.667-93.867-93.867-93.867zM512 470.187c-23.893 0-42.667-18.773-42.667-42.667s18.773-42.667 42.667-42.667 42.667 18.773 42.667 42.667-20.48 42.667-42.667 42.667zM853.333 333.654c-51.2 0-93.867 42.667-93.867 93.867s42.667 93.867 93.867 93.867 93.867-42.667 93.867-93.867-42.667-93.867-93.867-93.867zM853.333 470.187c-23.893 0-42.667-18.773-42.667-42.667s18.773-42.667 42.667-42.667 42.667 18.773 42.667 42.667-20.48 42.667-42.667 42.667z" />
<glyph unicode="&#xe635;" d="M513.707-33.28c-15.36 0-30.72 5.12-42.667 17.067l-92.16 83.627c-3.413 1.707-5.12 3.413-8.533 3.413l-124.587-5.12c0 0-1.707 0-1.707 0-30.72 0-58.027 23.893-63.147 54.613l-17.067 122.88c0 3.413-1.707 6.827-5.12 8.533l-98.987 76.8c-25.6 20.48-32.427 56.32-15.36 83.627l66.56 105.813c1.707 3.413 1.707 6.827 1.707 8.533l-25.6 121.173c-6.827 32.427 11.947 63.147 42.667 73.387l119.467 37.547c3.413 1.707 5.12 3.413 6.827 5.12l58.027 110.933c10.24 20.48 32.427 34.133 56.32 34.133 8.533 0 17.067-1.707 23.893-5.12l116.053-47.787c3.413-1.707 6.827-1.707 8.533 0l114.347 51.2c6.827 3.413 15.36 5.12 23.893 5.12 23.893 0 44.373-13.653 56.32-34.133l58.027-110.933c1.707-3.413 3.413-5.12 6.827-5.12l119.467-37.547c30.72-10.24 49.493-40.96 42.667-73.387l-25.6-121.173c0-3.413 0-6.827 1.707-8.533l66.56-105.813c17.067-27.307 11.947-63.147-15.36-83.627l-98.987-76.8c-1.707-1.707-3.413-5.12-5.12-8.533l-17.067-122.88c-3.413-30.72-30.72-54.613-63.147-54.613 0 0-1.707 0-1.707 0l-124.587 1.707c-3.413 0-6.827-1.707-8.533-3.413l-92.16-83.627c-11.947-10.24-27.307-17.067-42.667-17.067zM370.347 122.027c15.36 0 30.72-5.12 42.667-17.067l92.16-83.627c5.12-3.413 11.947-3.413 17.067 0l92.16 83.627c11.947 10.24 27.307 17.067 42.667 17.067 0 0 1.707 0 1.707 0l124.587-5.12c0 0 0 0 0 0 6.827 0 11.947 5.12 11.947 10.24l17.067 122.88c1.707 17.067 10.24 30.72 23.893 40.96l98.987 76.8c5.12 3.413 6.827 10.24 3.413 15.36l-66.56 105.813c-8.533 13.653-11.947 30.72-8.533 47.787l25.6 121.173c1.707 6.827-1.707 11.947-8.533 13.653l-119.467 37.547c-15.36 5.12-29.013 15.36-35.84 30.72l-58.027 110.933c-3.413 5.12-10.24 8.533-15.36 5.12l-116.053-47.787c-15.36-6.827-32.427-6.827-47.787 0l-116.053 47.787c-5.12 1.707-11.947 0-15.36-5.12l-58.027-110.933c-8.533-15.36-20.48-25.6-35.84-30.72l-119.467-37.547c-6.827-1.707-10.24-8.533-8.533-13.653l25.6-121.173c3.413-17.067 0-32.427-8.533-47.787l-66.56-105.813c0-3.413 0-10.24 5.12-13.653l98.987-76.8c13.653-10.24 22.187-25.6 23.893-40.96l17.067-122.88c0-6.827 6.827-10.24 11.947-10.24l124.587 5.12c0-1.707 3.413-1.707 3.413-1.707z" />
<glyph unicode="&#xe636;" d="M801.792 404.992c0-21.504-17.408-39.936-39.936-39.936h-171.008v-171.008c0-21.504-17.408-39.936-39.936-39.936h-78.848c-21.504 0-39.936 17.408-39.936 39.936v172.032h-169.984c-21.504 0-39.936 17.408-39.936 39.936v78.848c0 21.504 17.408 39.936 39.936 39.936h171.008v169.984c0 21.504 17.408 39.936 39.936 39.936h78.848c21.504 0 39.936-17.408 39.936-39.936v-171.008h171.008c21.504 0 39.936-17.408 39.936-39.936v-78.848z" />
<glyph unicode="&#xe637;" d="M809.984 544.256c-64.512-44.032-129.024-89.088-192.512-134.144-26.624-18.432-71.68-56.32-105.472-56.32v0 0c-33.792 0-78.848 37.888-105.472 56.32-63.488 45.056-128 89.088-192.512 134.144-29.696 19.456-70.656 66.56-70.656 103.424 0 39.936 21.504 74.752 65.536 74.752h605.184c35.84 0 65.536-29.696 65.536-65.536 1.024-46.080-32.768-88.064-69.632-112.64zM880.64 209.408c0-35.84-29.696-65.536-65.536-65.536h-606.208c-35.84 0-65.536 29.696-65.536 65.536v326.656c12.288-13.312 26.624-25.6 41.984-35.84 68.608-46.080 137.216-93.184 204.8-142.336 34.816-25.6 77.824-56.32 121.856-56.32v0 0c45.056 0 88.064 31.744 121.856 56.32 66.56 48.128 136.192 95.232 204.8 142.336 14.336 10.24 28.672 22.528 40.96 35.84v-326.656z" />
<glyph unicode="&#xe638;" d="M829.44 233.984c-8.192-20.48-31.744-33.792-50.176-44.032-24.576-13.312-49.152-20.48-76.8-20.48-37.888 0-72.704 15.36-107.52 28.672-25.6 9.216-49.152 20.48-71.68 33.792-69.632 43.008-154.624 126.976-197.632 197.632-14.336 22.528-25.6 47.104-33.792 71.68-12.288 34.816-28.672 69.632-28.672 107.52 0 27.648 8.192 52.224 20.48 76.8 10.24 18.432 23.552 41.984 44.032 50.176 13.312 6.144 41.984 12.288 57.344 12.288 3.072 0 6.144 0 8.192-1.024 8.192-3.072 17.408-22.528 21.504-31.744 13.312-23.552 25.6-47.104 39.936-70.656 6.144-10.24 18.432-23.552 18.432-36.864 0-25.6-74.752-61.44-74.752-83.968 0-11.264 10.24-25.6 16.384-35.84 41.984-74.752 93.184-126.976 167.936-167.936 10.24-6.144 24.576-16.384 35.84-16.384 22.528 0 58.368 74.752 83.968 74.752 12.288 0 25.6-12.288 36.864-18.432 22.528-13.312 47.104-26.624 70.656-39.936 8.192-4.096 28.672-13.312 31.744-21.504 1.024-3.072 1.024-6.144 1.024-8.192 0-14.336-7.168-43.008-13.312-56.32z" />
<glyph unicode="&#xe639;" d="M788.48 233.984c-8.192-20.48-31.744-33.792-50.176-44.032-24.576-13.312-49.152-20.48-76.8-20.48-37.888 0-72.704 15.36-107.52 28.672-25.6 9.216-49.152 20.48-71.68 33.792-69.632 43.008-154.624 126.976-197.632 197.632-14.336 22.528-25.6 47.104-33.792 71.68-12.288 34.816-28.672 69.632-28.672 107.52 0 27.648 8.192 52.224 20.48 76.8 10.24 18.432 23.552 41.984 44.032 50.176 13.312 6.144 41.984 12.288 57.344 12.288 3.072 0 6.144 0 8.192-1.024 8.192-3.072 17.408-22.528 21.504-31.744 13.312-23.552 25.6-47.104 39.936-70.656 6.144-10.24 18.432-23.552 18.432-36.864 0-25.6-74.752-61.44-74.752-83.968 0-11.264 10.24-25.6 16.384-35.84 41.984-74.752 93.184-126.976 167.936-167.936 10.24-6.144 24.576-16.384 35.84-16.384 22.528 0 58.368 74.752 83.968 74.752 12.288 0 25.6-12.288 36.864-18.432 22.528-13.312 47.104-26.624 70.656-39.936 8.192-4.096 28.672-13.312 31.744-21.504 1.024-3.072 1.024-6.144 1.024-8.192 0-14.336-7.168-43.008-13.312-56.32zM615.424 515.584l-77.824-77.824c-3.072-3.072-7.168-4.096-11.264-4.096s-8.192 2.048-11.264 4.096l-9.216 9.216c-3.072 3.072-4.096 7.168-4.096 11.264s2.048 8.192 4.096 11.264l34.816 34.816h-83.968c-8.192 0-14.336 7.168-14.336 15.36v15.36c0 8.192 5.12 15.36 14.336 15.36h83.968l-34.816 34.816c-3.072 3.072-4.096 7.168-4.096 11.264s2.048 8.192 4.096 11.264l9.216 9.216c3.072 3.072 7.168 4.096 11.264 4.096s8.192-2.048 11.264-4.096l77.824-77.824c3.072-3.072 4.096-7.168 4.096-11.264s-1.024-9.216-4.096-12.288z" />
<glyph unicode="&#xe63a;" d="M788.48 260.608c-8.192-20.48-31.744-33.792-50.176-44.032-24.576-13.312-49.152-20.48-76.8-20.48-37.888 0-72.704 15.36-107.52 28.672-25.6 9.216-49.152 20.48-71.68 33.792-69.632 43.008-154.624 128-197.632 197.632-14.336 22.528-25.6 47.104-33.792 71.68-12.288 34.816-28.672 69.632-28.672 107.52 0 27.648 8.192 52.224 20.48 76.8 10.24 18.432 23.552 41.984 44.032 50.176 13.312 6.144 41.984 12.288 57.344 12.288 3.072 0 6.144 0 8.192-1.024 8.192-3.072 17.408-22.528 21.504-31.744 13.312-23.552 25.6-47.104 39.936-70.656 6.144-10.24 18.432-23.552 18.432-36.864 0-25.6-74.752-61.44-74.752-83.968 0-11.264 10.24-25.6 16.384-35.84 41.984-74.752 93.184-126.976 167.936-167.936 10.24-6.144 24.576-16.384 35.84-16.384 22.528 0 58.368 74.752 83.968 74.752 12.288 0 25.6-12.288 36.864-18.432 22.528-13.312 47.104-26.624 70.656-39.936 8.192-4.096 28.672-13.312 31.744-21.504 1.024-3.072 1.024-6.144 1.024-8.192 0-14.336-7.168-43.008-13.312-56.32zM627.712 546.304c0-8.192-5.12-15.36-14.336-15.36h-83.968l34.816-34.816c3.072-3.072 4.096-7.168 4.096-11.264s-2.048-8.192-4.096-11.264l-9.216-9.216c-3.072-3.072-7.168-4.096-11.264-4.096s-8.192 2.048-11.264 4.096l-77.824 77.824c-3.072 3.072-4.096 7.168-4.096 11.264s2.048 8.192 4.096 11.264l77.824 77.824c3.072 3.072 7.168 4.096 11.264 4.096s8.192-2.048 11.264-4.096l9.216-9.216c3.072-3.072 4.096-7.168 4.096-11.264s-2.048-8.192-4.096-11.264l-34.816-34.816h83.968c8.192 0 14.336-7.168 14.336-15.36v-14.336z" />
<glyph unicode="&#xe63b;" d="M801.792 419.328c0-21.504-17.408-39.936-39.936-39.936h-499.712c-21.504 0-39.936 17.408-39.936 39.936v78.848c0 21.504 17.408 39.936 39.936 39.936h500.736c21.504 0 39.936-17.408 39.936-39.936v-78.848z" />
<glyph unicode="&#xe63c;" d="M512 103.936c-174.080 0-316.416 141.312-316.416 316.416s142.336 315.392 316.416 315.392c174.080 0 316.416-141.312 316.416-316.416s-142.336-315.392-316.416-315.392zM696.32 445.952c0 14.336-12.288 26.624-26.624 26.624h-105.472v104.448c0 14.336-12.288 26.624-26.624 26.624h-52.224c-14.336 0-26.624-12.288-26.624-26.624v-105.472h-104.448c-14.336 0-26.624-12.288-26.624-26.624v-52.224c0-14.336 12.288-26.624 26.624-26.624h105.472v-105.472c0-14.336 12.288-26.624 26.624-26.624h52.224c14.336 0 26.624 12.288 26.624 26.624v106.496h105.472c14.336 0 26.624 12.288 26.624 26.624v52.224z" />
<glyph unicode="&#xe63d;" d="M854.016 156.16c0-21.504-17.408-39.936-39.936-39.936h-605.184c-21.504 0-39.936 17.408-39.936 39.936v132.096c0 21.504 17.408 39.936 39.936 39.936h191.488l55.296-56.32c15.36-14.336 34.816-22.528 56.32-22.528s40.96 8.192 56.32 22.528l56.32 56.32h190.464c21.504 0 39.936-17.408 39.936-39.936v-132.096zM714.752 493.056l-184.32-184.32c-5.12-5.12-12.288-8.192-18.432-8.192s-13.312 2.048-18.432 8.192l-184.32 184.32c-8.192 7.168-10.24 18.432-6.144 28.672 4.096 9.216 13.312 16.384 24.576 16.384h105.472v184.32c0 14.336 12.288 26.624 26.624 26.624h105.472c14.336 0 26.624-12.288 26.624-26.624v-184.32h104.448c10.24 0 20.48-6.144 24.576-16.384 4.096-9.216 2.048-20.48-6.144-28.672zM669.696 222.72c-14.336 0-26.624-12.288-26.624-26.624s12.288-26.624 26.624-26.624 26.624 12.288 26.624 26.624-12.288 26.624-26.624 26.624zM775.168 222.72c-14.336 0-26.624-12.288-26.624-26.624s12.288-26.624 26.624-26.624 26.624 12.288 26.624 26.624-12.288 26.624-26.624 26.624z" />
<glyph unicode="&#xe63e;" d="M910.097 715.487h-800.461c-24.013 0-43.503-19.763-43.503-44.134v-423.731c0-24.371 19.49-44.134 43.503-44.134h800.461c24.013 0 43.503 19.763 43.503 44.134v423.731c0 24.371-19.49 44.134-43.503 44.134z" />
<glyph unicode="&#xe63f;" d="M630.63 470.478l-131.26 76.151c-10.411 6.042-18.927 1.092-18.927-11.008v-152.286c0-12.083 8.516-17.033 18.927-10.991l131.26 76.134c10.428 6.059 10.428 15.957 0 21.999z" />
<glyph unicode="&#xe640;" d="M440.781 386.783c0-11.076-7.561-20.156-16.777-20.156h-8.858c-9.216 0-16.777 9.062-16.777 20.156v143.172c0 11.076 7.561 20.173 16.777 20.173h8.858c9.216 0 16.777-9.079 16.777-20.173v-143.172z" />
<glyph unicode="&#xe641;" d="M384 756.447v-85.333h426.667v85.333h-426.667zM384 416.82h426.667v85.333h-426.667v-85.333zM384 162.527h426.667v85.333h-426.667v-85.333zM213.333 672.82h85.333v85.333h-85.333v-85.333zM213.333 416.82h85.333v85.333h-85.333v-85.333zM213.333 162.527h85.333v85.333h-85.333v-85.333z" />
<glyph unicode="&#xe642;" d="M213.333 754.74h213.333v-209.92h-213.333v209.92zM597.333 754.74h213.333v-209.92h-213.333v209.92zM213.333 374.154h213.333v-209.92h-213.333v209.92zM597.333 374.154h213.333v-209.92h-213.333v209.92z" />
<glyph unicode="&#xe643;" d="M39.385 932.102v-708.923h354.462l236.308-236.308v236.308h118.154v708.923h-708.923zM669.538 301.949h-118.154v-118.154l-78.769 118.154h-354.462v551.385h551.385v-551.385zM551.385 498.872h-315.077v-78.769h315.077v78.769zM551.385 617.025h-315.077v-78.769h315.077v78.769zM551.385 735.179h-315.077v-78.769h315.077v78.769z" horiz-adv-x="788" />
<glyph unicode="&#xe644;" d="M196.923 459.487h393.846v78.769h-393.846v-78.769zM393.846 695.795h-196.923v-78.769h196.923v78.769zM196.923 144.41h393.846v78.769h-393.846v-78.769zM196.923 301.949h393.846v78.769h-393.846v-78.769zM512 932.102h-472.615v-945.231h708.923v748.308l-236.308 196.923zM669.538 65.641h-551.385v787.692h354.462v-196.923h196.923v-590.769z" horiz-adv-x="788" />
<glyph unicode="&#xe645;" d="M590.769 498.872h-275.692v-78.769h275.692v78.769zM590.769 617.025h-275.692v-78.769h275.692v78.769zM590.769 735.179h-275.692v-78.769h275.692v78.769zM275.692 735.179h-78.769v-78.769h78.769v78.769zM275.692 617.025h-78.769v-78.769h78.769v78.769zM275.692 498.872h-78.769v-78.769h78.769v78.769zM39.385 932.102v-945.231h708.923v945.231h-708.923zM669.538 65.641h-551.385v787.692h551.385v-787.692zM590.769 380.718h-275.692v-78.769h275.692v78.769zM590.769 262.564h-275.692v-78.769h275.692v78.769zM275.692 380.718h-78.769v-78.769h78.769v78.769zM275.692 262.564h-78.769v-78.769h78.769v78.769z" horiz-adv-x="788" />
<glyph unicode="&#xe646;" d="M551.385 932.102v-866.462h-433.231v787.692h275.692v-551.385h-118.154v315.077h-78.769v-393.846h275.692v708.923h-433.231v-945.231h590.769v945.231z" horiz-adv-x="670" />
<glyph unicode="&#xe647;" d="M912.23 715.487h-800.461c-24.013 0-43.503-19.763-43.503-44.134v-423.731c0-24.371 19.49-44.134 43.503-44.134h800.461c24.013 0 43.503 19.763 43.503 44.134v423.731c0 24.371-19.49 44.134-43.503 44.134z" />
<glyph unicode="&#xe648;" d="M590.473 470.478l-131.26 76.151c-10.411 6.042-18.927 1.092-18.927-11.008v-152.286c0-12.083 8.516-17.033 18.927-10.991l131.26 76.134c10.411 6.059 10.411 15.957 0 21.999z" />
<glyph unicode="&#xe649;" d="M613.828 904.663h-504.832c-43.55 0-78.878-34.876-78.878-77.884v-747.761c0-43.008 35.328-77.884 78.878-77.884h504.832c43.55 0 78.878 34.876 78.878 77.884v747.761c0 43.008-35.328 77.884-78.878 77.884z" horiz-adv-x="723" />
<glyph unicode="&#xe64a;" d="M471.341 603.487h-219.859c-22.377 0-40.659-18.281-40.659-40.659v-219.859c0-22.347 18.281-40.659 40.659-40.659h219.889c22.347 0 40.659 18.281 40.659 40.659v219.859c-0.030 22.377-18.312 40.659-40.689 40.659z" horiz-adv-x="723" />
<glyph unicode="&#xe64b;" d="M613.828 904.663h-504.832c-43.55 0-78.878-34.876-78.878-77.884v-747.761c0-43.008 35.328-77.884 78.878-77.884h504.832c43.55 0 78.878 34.876 78.878 77.884v747.761c0 43.008-35.328 77.884-78.878 77.884z" horiz-adv-x="723" />
<glyph unicode="&#xe64c;" d="M259.735 637.942h-21.414c-22.347 0-40.659-18.312-40.659-40.689v-288.738c0-22.347 18.281-40.659 40.659-40.659h21.414c22.377 0 40.689 18.281 40.689 40.659v288.738c0 22.347-18.312 40.689-40.689 40.689zM484.503 637.942h-21.414c-22.377 0-40.689-18.312-40.689-40.689v-288.738c0-22.347 18.281-40.659 40.689-40.659h21.414c22.347 0 40.659 18.281 40.659 40.659v288.738c0 22.347-18.312 40.689-40.659 40.689z" horiz-adv-x="723" />
<glyph unicode="&#xe64d;" d="M455.009 778.544c-141.45 1.984-280.618 27.328-360.717 141.748 0 19.641-16.069 35.462-36.058 35.462s-36.106-15.821-36.106-35.462v-957.070h72.114v386.806c144.326-70.974 272.187-33.675 360.717 73.998 99.392 120.819 212.423 159.008 360.717 212.671 0 0-144.278 138.673-360.669 141.847z" horiz-adv-x="838" />
<glyph unicode="&#xe64e;" d="M511.816 629.103c-17.461 0-31.613-13.942-31.613-31.166v-164.838l-85.885-117.97c-10.214-13.995-6.958-33.451 7.247-43.481 5.593-3.938 12.025-5.855 18.432-5.855 9.846 0 19.535 4.542 25.705 13.023l91.819 126.083c3.86 5.278 5.934 11.632 5.934 18.143v174.894c0 17.224-14.178 31.166-31.639 31.166zM109.647 728.51c62.385 85.963 152.97 145.697 255.055 168.146 17.040 3.755 27.779 20.401 23.972 37.205-3.833 16.804-20.795 27.412-37.783 23.605-117.314-25.81-221.263-94.261-292.759-192.722-10.161-13.968-6.853-33.424 7.352-43.454 5.566-3.912 12.025-5.803 18.379-5.803 9.846 0 19.587 4.516 25.784 13.023zM965.422 764.744c-71.391 98.488-175.314 166.938-292.68 192.748-17.277 3.702-33.976-6.853-37.783-23.605-3.833-16.804 6.932-33.451 23.972-37.205 102.137-22.423 192.696-82.156 255.055-168.12 6.144-8.507 15.911-13.049 25.758-13.049 6.328 0 12.761 1.864 18.327 5.803 14.231 9.977 17.539 29.433 7.352 43.428zM926.326 424.855c0 225.017-185.948 408.13-414.51 408.13s-414.484-183.086-414.484-408.13c0-121.357 54.351-230.164 140.025-304.994l-63.173-112.929c-8.428-15.071-2.862-34.028 12.446-42.299 4.831-2.626 10.082-3.886 15.255-3.886 11.159 0 21.977 5.855 27.727 16.148l58.657 104.842c64.591-40.96 141.233-65.011 223.6-65.011s159.009 24.077 223.6 65.011l58.657-104.842c5.75-10.319 16.568-16.148 27.753-16.148 5.12 0 10.371 1.287 15.229 3.886 15.281 8.271 20.926 27.228 12.472 42.299l-63.173 112.929c85.57 74.831 139.92 183.637 139.92 304.994zM511.816 78.979c-193.641 0-351.206 155.149-351.206 345.849 0 190.674 157.565 345.849 351.206 345.849 193.667 0 351.232-155.149 351.232-345.849 0-190.727-157.565-345.849-351.232-345.849z" />
<glyph unicode="&#xe64f;" d="M1000.179 431.327l-69.336 111.481c-1.752 2.803-2.371 6.306-1.671 9.566l27.513 128.781c7.249 33.846-11.857 67.315-44.382 77.905l-123.85 40.232c-3.18 1.024-5.848 3.288-7.357 6.252l-60.632 116.547c-11.48 22.043-33.873 35.759-58.476 35.759-8.596 0-16.977-1.671-24.98-4.985l-120.401-49.853c-3.072-1.267-6.575-1.267-9.62 0l-120.401 49.853c-7.976 3.288-16.384 4.958-24.953 4.958-24.63 0-47.023-13.689-58.503-35.732l-60.605-116.493c-1.563-3.045-4.204-5.255-7.357-6.306l-123.877-40.232c-32.552-10.59-51.658-44.059-44.382-77.905l27.513-128.781c0.701-3.261 0.081-6.737-1.671-9.539l-69.309-111.481c-18.243-29.292-11.614-67.368 15.414-88.63l102.804-80.707c2.641-2.075 4.339-5.066 4.797-8.408l17.624-130.533c4.446-33.037 32.552-57.883 65.455-57.883 0.323 0 2.237 0.027 2.587 0.054l130.479 5.093c3.153 0 6.171-1.213 8.515-3.341l96.31-88.549c12.18-11.183 27.971-17.354 44.409-17.354 16.465 0 32.229 6.171 44.382 17.381l96.364 88.549c2.317 2.129 5.848 2.668 9 3.288l129.94-5.066c0.377-0.027 2.749-0.108 2.614-0.054 32.849 0 60.982 24.872 65.428 57.856l17.624 130.533c0.458 3.368 2.156 6.36 4.797 8.435l102.804 80.707c27.001 21.235 33.603 59.338 15.387 88.603zM952.077 385.49l-102.804-80.734c-13.716-10.779-22.609-26.355-24.98-43.843l-17.624-130.56c-0.835-6.306-6.225-11.102-13.016-11.102 0 0 0 0-0.027 0l-129.94 5.093c-0.35 0-2.237 0.054-2.614 0.054-16.465 0-32.229-6.171-44.355-17.381l-96.337-88.549c-4.689-4.258-12.369-4.285-17.058 0l-96.418 88.603c-12.18 11.183-27.944 17.354-44.355 17.354-0.323 0-2.237-0.054-2.587-0.054l-130.479-5.12c-6.306 0-11.695 4.797-12.531 11.129l-17.624 130.587c-2.371 17.462-11.264 33.037-25.007 43.816l-102.804 80.734c-5.201 4.042-6.467 11.372-2.937 17.031l69.336 111.481c9.297 14.929 12.342 32.633 8.65 49.853l-27.513 128.781c-1.374 6.494 2.264 12.908 8.542 14.983l123.877 40.205c16.546 5.389 30.127 16.95 38.265 32.552l60.632 116.547c2.964 5.713 10.105 8.408 16.034 5.928l120.428-49.853c15.926-6.548 33.954-6.548 49.933 0.027l120.428 49.826c5.955 2.452 13.069-0.216 16.034-5.901l60.632-116.574c8.084-15.576 21.666-27.136 38.265-32.552l123.877-40.205c6.252-2.048 9.917-8.461 8.515-14.983l-27.513-128.808c-3.665-17.246-0.593-34.924 8.677-49.853l69.336-111.481c3.503-5.659 2.237-12.989-2.937-17.031z" />
<glyph unicode="&#xe650;" d="M247.335 792.129c-10.818 13.758-30.904 16.305-44.925 5.619-30.221-23.106-57.475-49.913-81.027-79.688-10.896-13.758-8.402-33.608 5.54-44.347 5.855-4.516 12.813-6.695 19.692-6.695 9.531 0 18.957 4.175 25.259 12.157 20.296 25.679 43.769 48.732 69.763 68.634 14.021 10.686 16.542 30.536 5.698 44.321zM154.755 223.678c-9.846 14.546-29.722 18.432-44.426 8.743s-18.642-29.302-8.822-43.822c21.215-31.35 46.369-60.075 74.805-85.36 6.118-5.435 13.785-8.139 21.451-8.139 8.743 0 17.487 3.518 23.788 10.424 11.842 12.944 10.791 32.926-2.337 44.61-24.497 21.819-46.185 46.526-64.459 73.544zM56.924 476.449c1.733-0.289 3.466-0.42 5.173-0.42 15.439 0 29.013 11.028 31.586 26.545 5.278 32.112 14.625 63.435 27.806 93.131 7.089 15.99-0.289 34.606-16.489 41.616-16.279 7.037-35.105-0.289-42.168-16.253-15.334-34.58-26.23-71.024-32.348-108.36-2.888-17.25 8.98-33.477 26.44-36.26zM313.607 794.703c4.254 0 8.586 0.84 12.761 2.652 8.428 3.623 16.988 6.958 25.731 9.977 16.673 5.803 25.469 23.815 19.614 40.277s-24.182 25.127-40.829 19.325c-10.214-3.518-20.244-7.404-30.090-11.632-16.226-6.984-23.631-25.574-16.594-41.564 5.278-11.92 17.040-19.036 29.407-19.036zM110.776 310.482c-10.87 30.536-17.854 62.49-20.743 94.943-1.549 17.382-16.962 30.090-34.685 28.725-17.618-1.523-30.641-16.83-29.092-34.238 3.361-37.73 11.448-74.857 24.103-110.382 4.621-12.997 16.988-21.136 30.221-21.136 3.518 0 7.115 0.551 10.608 1.785 16.673 5.829 25.442 23.841 19.587 40.304zM587.618 63.698c-31.586-8.481-64.407-13.076-97.49-13.627-17.697-0.289-31.797-14.677-31.508-32.112 0.289-17.277 14.572-31.088 32.007-31.088 0.184 0 0.368 0 0.551 0 38.413 0.63 76.537 5.96 113.296 15.833 17.067 4.595 27.123 21.95 22.475 38.807s-22.187 26.808-39.332 22.187zM900.621 343.486c-16.962 5.251-34.869-4.017-40.146-20.664-9.846-30.983-23.657-60.679-41.039-88.274-9.321-14.809-4.726-34.317 10.319-43.507 5.251-3.23 11.080-4.752 16.857-4.752 10.713 0 21.163 5.278 27.228 14.914 20.217 32.112 36.286 66.639 47.734 102.689 5.304 16.62-4.096 34.37-20.953 39.595zM757.471 158.982c-23.762-22.554-50.307-42.142-78.901-58.21-15.36-8.638-20.743-27.937-11.999-43.113 5.908-10.24 16.725-15.964 27.858-15.964 5.383 0 10.818 1.339 15.833 4.149 33.241 18.668 64.039 41.406 91.609 67.584 12.734 12.13 13.128 32.138 0.84 44.688-12.209 12.577-32.505 12.971-45.24 0.866zM392.192 60.521c-32.033 7.483-63.042 18.931-92.186 34.055-15.649 8.192-35 2.206-43.244-13.259-8.218-15.439-2.232-34.527 13.417-42.667 33.923-17.592 70-30.93 107.231-39.621 2.468-0.578 4.962-0.866 7.404-0.866 14.52 0 27.674 9.794 31.166 24.34 4.070 16.988-6.59 34.002-23.788 38.019zM940.478 481.122c-19.193 207.714-181.143 374.863-388.017 405.793-11.317 26.519-37.914 45.161-68.897 45.161-41.275 0-74.726-33.004-74.726-73.728s33.451-73.728 74.726-73.728c28.436 0 52.88 15.859 65.51 38.912 171.402-28.383 305.572-165.704 326.42-337.29l-51.751 51.069v-72.757l86.856-85.701 86.882 85.701v72.757l-57.003-56.189zM487.109 685.423c-17.671 0-32.033-14.126-32.033-31.586v-228.142c0-17.461 14.336-31.613 32.033-31.613h231.293c17.697 0 32.033 14.152 32.033 31.613 0 17.434-14.336 31.586-32.033 31.586h-199.26v196.555c0 17.461-14.336 31.586-32.033 31.586z" />
<glyph unicode="&#xe651;" d="M605.893 896.105c-10.686 28.646-37.967 49.126-70.157 49.126-41.485 0-75.12-33.818-75.12-75.566 0-41.721 33.634-75.566 75.12-75.566 27.595 0 51.463 15.124 64.538 37.442 188.363-31.166 332.642-195.531 332.642-393.636 0-220.239-178.15-399.386-397.181-399.386-178.36 0-333.194 120.937-381.348 289.031l51.961-44.531-5.934 74.332-94.077 80.555-80.082-94.576 5.934-74.358 53.931 63.724c47.892-207.373 234.233-358.951 449.615-358.951 254.53 0 461.588 208.24 461.588 464.161 0 231.87-170.168 424.041-391.431 458.201zM104.973 475.53c1.733-0.289 3.492-0.446 5.199-0.446 15.518 0 29.171 11.317 31.744 27.202 5.304 32.899 14.73 65.037 27.963 95.468 7.115 16.384-0.289 35.499-16.594 42.64-16.384 7.194-35.315-0.315-42.404-16.673-15.439-35.446-26.388-72.783-32.532-111.065-2.862-17.618 9.085-34.265 26.624-37.127zM195.164 670.851c9.584 0 19.062 4.28 25.416 12.472 20.401 26.283 44.006 49.94 70.157 70.341 14.073 10.975 16.62 31.298 5.724 45.424-10.87 14.126-31.088 16.725-45.187 5.776-30.379-23.71-57.79-51.174-81.474-81.71-10.949-14.1-8.455-34.448 5.566-45.45 5.908-4.621 12.866-6.853 19.797-6.853zM363.1 801.739c4.254 0 8.638 0.84 12.813 2.704 8.455 3.702 17.093 7.115 25.863 10.24 16.778 5.934 25.6 24.418 19.719 41.275-5.908 16.857-24.34 25.731-41.039 19.797-10.266-3.623-20.322-7.588-30.221-11.92-16.331-7.115-23.788-26.204-16.699-42.614 5.278-12.209 17.119-19.482 29.565-19.482zM532.165 689.756c-17.776 0-32.217-14.494-32.217-32.374v-233.84c0-17.907 14.441-32.374 32.217-32.374h232.579c17.776 0 32.217 14.494 32.217 32.374s-14.441 32.374-32.217 32.374h-200.389v201.465c0.026 17.881-14.389 32.374-32.19 32.374z" />
<glyph unicode="&#xe652;" d="M409.583 527.771l102.434-136.567 102.4 136.567z" />
<glyph unicode="&#xe653;" d="M298.667 652.545l170.667-170.684v-213.333l85.299 85.333v128l170.701 170.684z" />
<glyph unicode="&#xe654;" d="M723.081 302.678l-100.949 101.666c16.435 26.829 25.941 58.47 25.941 92.45 0 97.109-78.268 175.991-174.694 175.991-96.597 0-174.694-78.882-174.694-175.991 0-97.314 78.097-176.196 174.694-176.196 35.43 0 68.267 10.633 95.727 28.74l100.198-100.949c5.205-5.239 18.142-0.717 28.894 10.069l15.019 15.189c10.718 10.752 15.223 23.808 9.865 29.030zM473.361 379.12c-64.461 0-116.804 52.736-116.804 117.692 0 64.939 52.326 117.504 116.804 117.504 64.427 0 116.634-52.565 116.634-117.504 0-64.973-52.19-117.692-116.634-117.692z" />
<glyph unicode="&#xe655;" d="M682.667 610.373l-321.57-321.553-19.763 19.78 321.57 321.553 19.763-19.78zM682.667 308.601l-19.763-19.78-321.57 321.553 19.763 19.78 321.57-321.553z" />
<glyph unicode="&#xe656;" d="M384 832c0 70.688 57.312 128 128 128s128-57.312 128-128c0-70.688-57.312-128-128-128s-128 57.312-128 128zM791.008 448c0 0 0 0 0 0 0 57.984 47.008 104.992 104.992 104.992s104.992-47.008 104.992-104.992c0 0 0 0 0 0 0-57.984-47.008-104.992-104.992-104.992s-104.992 47.008-104.992 104.992zM688.416 176.48c0 52.512 42.592 95.104 95.104 95.104s95.104-42.592 95.104-95.104c0-52.512-42.592-95.104-95.104-95.104s-95.104 42.592-95.104 95.104zM425.856 64c0 47.584 38.56 86.144 86.144 86.144s86.144-38.56 86.144-86.144c0-47.584-38.56-86.144-86.144-86.144s-86.144 38.56-86.144 86.144zM162.464 176.48c0 43.072 34.944 78.016 78.016 78.016s78.016-34.944 78.016-78.016c0-43.072-34.944-78.016-78.016-78.016s-78.016 34.944-78.016 78.016zM57.344 448c0 39.040 31.648 70.656 70.656 70.656s70.656-31.648 70.656-70.656c0-39.040-31.648-70.656-70.656-70.656s-70.656 31.648-70.656 70.656zM176.48 719.52c0 0 0 0 0 0 0 35.36 28.64 64 64 64s64-28.64 64-64c0 0 0 0 0 0 0-35.36-28.64-64-64-64s-64 28.64-64 64zM899.456 719.52c0-64.032-51.904-115.936-115.936-115.936s-115.936 51.904-115.936 115.936c0 64.032 51.904 115.936 115.936 115.936s115.936-51.904 115.936-115.936z" />
<glyph unicode="&#xe657;" d="M917.792 602.912c-22.208 30.304-53.184 65.696-87.168 99.712s-69.408 64.96-99.712 87.168c-51.584 37.824-76.576 42.208-90.912 42.208h-368c-44.128 0-80-35.904-80-80v-736c0-44.096 35.872-80 80-80h608c44.096 0 80 35.904 80 80v496c0 14.336-4.384 39.36-42.208 90.912zM785.376 657.376c30.688-30.688 54.784-58.4 72.576-81.376h-153.952v153.952c22.976-17.792 50.688-41.888 81.376-72.576v0zM896 16c0-8.672-7.328-16-16-16h-608c-8.672 0-16 7.328-16 16v736c0 8.672 7.328 16 16 16 0 0 367.968 0 368 0v-224c0-17.664 14.336-32 32-32h224v-496zM602.912 917.792c-51.584 37.824-76.576 42.208-90.912 42.208h-368c-44.096 0-80-35.872-80-80v-736c0-38.624 27.52-70.944 64-78.4v814.4c0 8.672 7.328 16 16 16h486.88c-9.632 7.936-19.040 15.264-27.936 21.792z" />
<glyph unicode="&#xe658;" d="M512 867.232l429.088-855.232h-858.208l429.088 855.232zM512 960c-22.080 0-44.128-14.88-60.896-44.64l-437.088-871.104c-33.472-59.52-4.992-108.256 63.296-108.256h869.312c68.288 0 96.8 48.704 63.296 108.256v0l-437.088 871.104c-16.736 29.76-38.816 44.64-60.896 44.64v0zM576 128c0-35.36-28.64-64-64-64s-64 28.64-64 64c0 35.36 28.64 64 64 64s64-28.64 64-64zM512 256c-35.36 0-64 28.64-64 64v192c0 35.36 28.64 64 64 64s64-28.64 64-64v-192c0-35.36-28.64-64-64-64z" />
<glyph unicode="&#xe659;" d="M416 32c0 53.024 42.976 96 96 96s96-42.976 96-96c0-53.024-42.976-96-96-96s-96 42.976-96 96zM0 448c0 53.024 42.976 96 96 96s96-42.976 96-96c0-53.024-42.976-96-96-96s-96 42.976-96 96zM832 448c0 53.024 42.976 96 96 96s96-42.976 96-96c0-53.024-42.976-96-96-96s-96 42.976-96 96zM121.856 742.144c0 53.024 42.976 96 96 96s96-42.976 96-96c0-53.024-42.976-96-96-96s-96 42.976-96 96zM710.144 153.856c0 53.024 42.976 96 96 96s96-42.976 96-96c0-53.024-42.976-96-96-96s-96 42.976-96 96zM121.856 153.856c0 53.024 42.976 96 96 96s96-42.976 96-96c0-53.024-42.976-96-96-96s-96 42.976-96 96zM710.144 742.144c0 53.024 42.976 96 96 96s96-42.976 96-96c0-53.024-42.976-96-96-96s-96 42.976-96 96z" />
<glyph unicode="&#xe65a;" d="M512-64c-136.768 0-265.344 53.248-362.048 149.952s-149.952 225.28-149.952 362.048c0 96.832 27.168 191.136 78.592 272.704 50.016 79.296 120.672 143.36 204.352 185.312l43.008-85.824c-68.032-34.080-125.504-86.176-166.144-150.656-41.76-66.208-63.808-142.784-63.808-221.504 0-229.376 186.624-416 416-416s416 186.624 416 416c0 78.688-22.080 155.296-63.808 221.504-40.672 64.48-98.112 116.576-166.144 150.656l43.008 85.824c83.68-41.92 154.368-106.016 204.352-185.312 51.424-81.568 78.592-175.84 78.592-272.704 0-136.768-53.248-265.344-149.952-362.048s-225.28-149.952-362.048-149.952z" />
<glyph unicode="&#xe65b;" d="M384 832c0 70.688 57.312 128 128 128s128-57.312 128-128c0-70.688-57.312-128-128-128s-128 57.312-128 128zM655.52 719.52c0 70.688 57.312 128 128 128s128-57.312 128-128c0-70.688-57.312-128-128-128s-128 57.312-128 128zM832 448c0 35.36 28.64 64 64 64s64-28.64 64-64c0-35.36-28.64-64-64-64s-64 28.64-64 64zM719.52 176.48c0 35.36 28.64 64 64 64s64-28.64 64-64c0-35.36-28.64-64-64-64s-64 28.64-64 64zM448 64c0 0 0 0 0 0 0 35.36 28.64 64 64 64s64-28.64 64-64c0 0 0 0 0 0 0-35.36-28.64-64-64-64s-64 28.64-64 64zM176.48 176.48c0 0 0 0 0 0 0 35.36 28.64 64 64 64s64-28.64 64-64c0 0 0 0 0 0 0-35.36-28.64-64-64-64s-64 28.64-64 64zM144.48 719.52c0 0 0 0 0 0 0 53.024 42.976 96 96 96s96-42.976 96-96c0 0 0 0 0 0 0-53.024-42.976-96-96-96s-96 42.976-96 96zM56 448c0 39.776 32.224 72 72 72s72-32.224 72-72c0-39.776-32.224-72-72-72s-72 32.224-72 72z" />
<glyph unicode="&#xe65c;" d="M113.664 347.648c-39.936 0-72.704 31.744-72.704 72.704s31.744 72.704 72.704 72.704 72.704-31.744 72.704-72.704-32.768-72.704-72.704-72.704zM230.4 610.816c-50.176 0-90.112 40.96-90.112 90.112s40.96 90.112 90.112 90.112 90.112-40.96 90.112-90.112-39.936-90.112-90.112-90.112zM230.4 66.048c-39.936 0-72.704 32.768-72.704 72.704s32.768 72.704 72.704 72.704c39.936 0 72.704-31.744 72.704-72.704 0-39.936-32.768-72.704-72.704-72.704zM512 709.12c-60.416 0-108.544 49.152-108.544 108.544s48.128 108.544 108.544 108.544 108.544-48.128 108.544-108.544-48.128-108.544-108.544-108.544zM512-50.688c-39.936 0-72.704 31.744-72.704 72.704s31.744 72.704 72.704 72.704 72.704-31.744 72.704-72.704-32.768-72.704-72.704-72.704zM793.6 574.976c-70.656 0-126.976 56.32-126.976 126.976 0 69.632 56.32 126.976 126.976 126.976 69.632 0 126.976-57.344 126.976-126.976 0-70.656-57.344-126.976-126.976-126.976zM793.6 66.048c-39.936 0-72.704 32.768-72.704 72.704s31.744 72.704 72.704 72.704c39.936 0 72.704-31.744 72.704-72.704 0-39.936-32.768-72.704-72.704-72.704zM910.336 347.648c-39.936 0-72.704 31.744-72.704 72.704s31.744 72.704 72.704 72.704 72.704-31.744 72.704-72.704-32.768-72.704-72.704-72.704z" />
<glyph unicode="&#xe65d;" d="M916.48 31.232c0-36.864-30.72-67.584-67.584-67.584h-673.792c-36.864 0-67.584 30.72-67.584 67.584v405.504c0 36.864 30.72 67.584 67.584 67.584h22.528v134.144c0 173.056 141.312 315.392 314.368 315.392s314.368-142.336 314.368-314.368v-135.168h22.528c36.864 0 67.584-30.72 67.584-67.584v-405.504zM692.224 504.32v134.144c0 99.328-80.896 180.224-180.224 180.224s-180.224-80.896-180.224-180.224v-135.168h360.448z" />
<glyph unicode="&#xe65e;" d="M271.36 410.112c0-21.504-18.432-39.936-39.936-39.936h-179.2c-21.504 0-39.936 18.432-39.936 39.936v399.36c0 21.504 18.432 39.936 39.936 39.936h179.2c21.504 0 39.936-18.432 39.936-39.936v-399.36zM172.032 729.6c0 22.528-18.432 39.936-39.936 39.936-22.528 0-39.936-17.408-39.936-39.936 0-21.504 17.408-39.936 39.936-39.936 21.504 0 39.936 17.408 39.936 39.936zM974.848 503.296c7.168 19.456 9.216 38.912 9.216 47.104 1.024 30.72-8.192 60.416-26.624 84.992 7.168 22.528 7.168 48.128 0 72.704-6.144 23.552-18.432 44.032-33.792 58.368 4.096 47.104-7.168 84.992-30.72 112.64-26.624 31.744-67.584 48.128-122.88 48.128-2.048 0-11.264 0-22.528 0h-57.344c-89.088 0-173.056-29.696-240.64-52.224-38.912-13.312-76.8-26.624-98.304-27.648s-39.936-18.432-39.936-39.936v-399.36c0-20.48 17.408-37.888 37.888-39.936 23.552-2.048 82.944-75.776 110.592-111.616 22.528-28.672 44.032-55.296 62.464-74.752 24.576-24.576 30.72-61.44 38.912-97.28 7.168-36.864 14.336-75.776 40.96-101.376 7.168-7.168 17.408-12.288 27.648-12.288 139.264 0 139.264 111.616 139.264 159.744 0 51.2-18.432 87.040-34.816 119.808-7.168 13.312-13.312 19.456-18.432 39.936h172.032c64.512 0 118.784 55.296 119.808 119.808 1.024 33.792-11.264 69.632-32.768 93.184z" />
<glyph unicode="&#xe65f;" d="M827.392 491.008l-546.816-546.816h-273.408v273.408l546.816 546.816 273.408-273.408zM306.176 88.576l-154.624 154.624-59.392-59.392v-70.656h83.968v-84.992h69.632l60.416 60.416zM575.488 652.8c-4.096 0-8.192-1.024-11.264-4.096l-356.352-356.352c-3.072-3.072-4.096-7.168-4.096-11.264 0-8.192 6.144-14.336 14.336-14.336 4.096 0 8.192 1.024 11.264 4.096l356.352 356.352c3.072 3.072 4.096 7.168 4.096 11.264 0 8.192-6.144 14.336-14.336 14.336zM978.944 642.56l-109.568-109.568-273.408 273.408 109.568 108.544c15.36 15.36 36.864 24.576 59.392 24.576s44.032-9.216 59.392-24.576l154.624-153.6c15.36-15.36 24.576-37.888 24.576-59.392s-10.24-44.032-24.576-59.392z" />
<glyph unicode="&#xe660;" d="M1006.592 118.272c0-52.224-43.008-95.232-95.232-95.232h-798.72c-52.224 0-95.232 43.008-95.232 95.232v646.144c0 52.224 43.008 95.232 95.232 95.232h798.72c52.224 0 95.232-43.008 95.232-95.232v-646.144zM321.536 688.64c0 10.24-8.192 19.456-19.456 19.456h-189.44c-10.24 0-19.456-8.192-19.456-19.456v-113.664c0-10.24 8.192-19.456 19.456-19.456h190.464c10.24 0 19.456 8.192 19.456 19.456v113.664zM321.536 460.288c0 10.24-8.192 19.456-19.456 19.456h-189.44c-10.24 0-19.456-8.192-19.456-19.456v-114.688c0-10.24 8.192-19.456 19.456-19.456h190.464c10.24 0 19.456 8.192 19.456 19.456v114.688zM321.536 231.936c0 10.24-8.192 19.456-19.456 19.456h-189.44c-10.24 0-19.456-8.192-19.456-19.456v-113.664c0-10.24 8.192-19.456 19.456-19.456h190.464c10.24 0 19.456 8.192 19.456 19.456v113.664zM625.664 688.64c0 10.24-8.192 19.456-19.456 19.456h-189.44c-10.24 0-19.456-8.192-19.456-19.456v-113.664c0-10.24 8.192-19.456 19.456-19.456h190.464c10.24 0 19.456 8.192 19.456 19.456v113.664zM625.664 460.288c0 10.24-8.192 19.456-19.456 19.456h-189.44c-10.24 0-19.456-8.192-19.456-19.456v-114.688c0-10.24 8.192-19.456 19.456-19.456h190.464c10.24 0 19.456 8.192 19.456 19.456v114.688zM625.664 231.936c0 10.24-8.192 19.456-19.456 19.456h-189.44c-10.24 0-19.456-8.192-19.456-19.456v-113.664c0-10.24 8.192-19.456 19.456-19.456h190.464c10.24 0 19.456 8.192 19.456 19.456v113.664zM929.792 688.64c0 10.24-8.192 19.456-19.456 19.456h-189.44c-10.24 0-19.456-8.192-19.456-19.456v-113.664c0-10.24 8.192-19.456 19.456-19.456h190.464c10.24 0 19.456 8.192 19.456 19.456v113.664zM929.792 460.288c0 10.24-8.192 19.456-19.456 19.456h-189.44c-10.24 0-19.456-8.192-19.456-19.456v-114.688c0-10.24 8.192-19.456 19.456-19.456h190.464c10.24 0 19.456 8.192 19.456 19.456v114.688zM929.792 231.936c0 10.24-8.192 19.456-19.456 19.456h-189.44c-10.24 0-19.456-8.192-19.456-19.456v-113.664c0-10.24 8.192-19.456 19.456-19.456h190.464c10.24 0 19.456 8.192 19.456 19.456v113.664z" />
<glyph unicode="&#xe661;" d="M972.8 25.088c0-38.912-31.744-70.656-70.656-70.656h-780.288c-38.912 0-70.656 31.744-70.656 70.656v709.632c0 38.912 31.744 70.656 70.656 70.656h70.656v53.248c0 49.152 39.936 89.088 89.088 89.088h35.84c49.152 0 89.088-39.936 89.088-89.088v-53.248h212.992v53.248c0 49.152 39.936 89.088 89.088 89.088h35.84c49.152 0 89.088-39.936 89.088-89.088v-53.248h70.656c38.912 0 70.656-31.744 70.656-70.656v-709.632zM902.144 25.088v567.296h-780.288v-567.296h780.288zM334.848 858.624c0 10.24-8.192 17.408-17.408 17.408h-35.84c-10.24 0-17.408-8.192-17.408-17.408v-159.744c0-10.24 8.192-17.408 17.408-17.408h35.84c10.24 0 17.408 8.192 17.408 17.408v159.744zM759.808 858.624c0 10.24-8.192 17.408-17.408 17.408h-35.84c-10.24 0-17.408-8.192-17.408-17.408v-159.744c0-10.24 8.192-17.408 17.408-17.408h35.84c10.24 0 17.408 8.192 17.408 17.408v159.744z" />
<glyph unicode="&#xe662;" d="M97.28 245.248l219.136-219.136-306.176-79.872zM163.84 310.784l219.136-219.136 442.368 441.344-222.208 222.208zM657.408 816.64l146.432 146.432 216.064-217.088-140.288-140.288z" />
</font>
</defs>
</svg>
